# xmcd
#
# Track frame offsets: 
#        150
#        17508
#        31629
#        67699
#
# Disc length: 1436 seconds
#
# Revision: 3
# Processed by: cddbd v1.5.2PL0 Copyright (c) Steve Scherf et al.
# Submitted via: ExactAudioCopy v0.99pb5
#
DISCID=1c059a04
DTITLE=Bon Jovi - Have A Nice Day CD2
DYEAR=2005
DGENRE=Rock
TTITLE0=Have A Nice Day
TTITLE1=I Get A Rush (Live From Atlantic City)
TTITLE2=Miss Fourth Of July (Live From Atlantic City)
TTITLE3=Have A Nice Day (Video)
EXTD=YEAR: 2005
EXTT0=
EXTT1=
EXTT2=
EXTT3=
PLAYORDER=
